<?xml version="1.0" encoding="UTF-8" standalone="no"?>
<!DOCTYPE svg PUBLIC "-//W3C//DTD SVG 1.1//EN" "http://www.w3.org/Graphics/SVG/1.1/DTD/svg11.dtd">
<svg width="100%" height="100%" viewBox="0 0 154 153" version="1.1" xmlns="http://www.w3.org/2000/svg" xmlns:xlink="http://www.w3.org/1999/xlink" xml:space="preserve" xmlns:serif="http://www.serif.com/" style="fill-rule:evenodd;clip-rule:evenodd;stroke-linejoin:round;stroke-miterlimit:2;">
    <g transform="matrix(1,0,0,1,0.00208043,0.000131672)">
        <g transform="matrix(1,0,0,1,-73.4053,-11.2637)">
            <g transform="matrix(2.28619,0,0,2.28619,-1375.79,-64.5617)">
                <g>
                    <path d="M699.469,74.311C698.46,72.806 696.932,71.628 696.275,69.938C695.399,67.685 696.289,65.175 696.368,62.759C696.472,59.594 695.066,56.413 692.656,54.359C689.282,51.483 684.257,50.831 681.405,47.437C678.755,44.283 678.655,39.499 675.832,36.499C673.692,34.226 670.413,33.449 667.303,33.178C666.716,33.127 663.41,33.255 662.56,33.42C659.496,34.012 656.314,35.126 654.424,37.609C651.928,40.886 652.325,45.655 650.018,49.068C647.535,52.741 642.604,53.912 639.548,57.123C637.364,59.416 636.298,62.726 636.729,65.863C637.059,68.258 638.206,70.662 637.569,72.994C637.092,74.742 635.694,76.073 634.848,77.676C633.048,81.079 633.961,85.406 636.124,88.591C638.286,91.776 642.676,92.976 644.652,96.28C647.733,101.427 659.978,100.011 668.301,98.248C676.763,99.14 689.12,99.283 691.652,93.834C693.274,90.344 697.516,88.693 699.335,85.301C701.154,81.908 701.613,77.509 699.469,74.311Z" style="fill-rule:nonzero;"/>
                    <path d="M678.739,49.565C678.587,47.939 678.223,46.32 677.526,44.842C675.528,40.601 671.742,37.817 666.857,37.835C659.934,37.862 655.71,41.63 653.589,48.882C652.921,51.166 653.205,54.258 653.355,56.85C653.355,59.019 654.055,66.319 657.46,69.725L655.608,85.431C667.694,93.416 675.606,85.049 675.606,85.049L674.425,69.592C674.425,69.592 675.337,68.551 676.339,66.407C677.445,64.041 678.064,61.483 678.286,58.88C678.537,55.937 678.893,51.203 678.739,49.565Z" style="fill:rgb(245,155,148);fill-rule:nonzero;"/>
                    <path d="M657.46,69.725C662.088,73.465 666.896,75.337 674.425,69.592C674.425,69.592 666.745,78.871 656.82,75.153L657.46,69.725Z" style="fill:rgb(222,123,119);fill-rule:nonzero;"/>
                    <path d="M654.967,57.947C654.967,59.303 654.135,60.402 653.107,60.402C652.081,60.402 651.248,59.303 651.248,57.947C651.248,56.591 652.081,55.493 653.107,55.493C654.135,55.493 654.967,56.591 654.967,57.947Z" style="fill:rgb(245,155,148);fill-rule:nonzero;"/>
                    <path d="M652.848,57.624C652.669,57.624 652.525,57.769 652.525,57.947C652.525,58.125 652.669,58.269 652.848,58.269C653.459,57.98 653.69,58.433 653.69,58.433C653.598,57.507 652.848,57.624 652.848,57.624Z" style="fill:rgb(222,123,119);fill-rule:nonzero;"/>
                    <path d="M676.537,57.947C676.537,59.303 677.37,60.402 678.396,60.402C679.424,60.402 680.256,59.303 680.256,57.947C680.256,56.591 679.424,55.493 678.396,55.493C677.37,55.493 676.537,56.591 676.537,57.947Z" style="fill:rgb(245,155,148);fill-rule:nonzero;"/>
                    <path d="M678.657,57.624C678.835,57.624 678.979,57.769 678.979,57.947C678.979,58.125 678.835,58.269 678.657,58.269L678.656,58.269C678.045,57.98 677.814,58.433 677.814,58.433C677.906,57.507 678.657,57.624 678.657,57.624Z" style="fill:rgb(222,123,119);fill-rule:nonzero;"/>
                    <path d="M665.68,54.263C665.879,54.87 666.006,55.426 666.192,55.917C666.384,56.41 666.598,56.784 666.938,56.971C667.022,57.028 667.126,57.059 667.233,57.097C667.326,57.123 667.567,57.147 667.719,57.414C667.838,57.677 667.757,57.844 667.724,57.943C667.54,58.334 667.315,58.516 667.088,58.735C666.634,59.149 666.144,59.494 665.614,59.787L666.651,58.355C666.803,58.128 666.973,57.855 667.01,57.696C667.024,57.66 666.974,57.667 667.025,57.798C667.103,57.929 667.181,57.92 667.133,57.923C666.95,57.915 666.762,57.89 666.576,57.825C665.795,57.552 665.396,56.756 665.333,56.122C665.256,55.463 665.357,54.825 665.68,54.263Z" style="fill:rgb(222,123,119);fill-rule:nonzero;"/>
                    <g transform="matrix(1,0,0,1,92.0248,3.18437)">
                        <path d="M577.598,58.687C577.378,59.434 576.907,60.105 576.272,60.62C575.636,61.136 574.769,61.429 573.905,61.385C573.043,61.31 572.275,60.943 571.637,60.468C571.332,60.215 571.053,59.935 570.791,59.651C570.561,59.335 570.332,59.024 570.144,58.689C570.493,58.872 570.804,59.079 571.112,59.28L572.056,59.81C572.697,60.099 573.325,60.345 573.967,60.387C574.604,60.431 575.234,60.272 575.847,59.969C576.451,59.65 577.03,59.209 577.598,58.687Z" style="fill:rgb(222,123,119);fill-rule:nonzero;"/>
                    </g>
                    <path d="M661.245,54.769C661.229,55.404 661.149,56.03 660.949,56.647C660.851,56.955 660.716,57.26 660.504,57.538C660.3,57.811 659.976,58.065 659.582,58.112C659.185,58.165 658.8,57.968 658.552,57.73C658.295,57.489 658.111,57.21 657.962,56.921C657.667,56.341 657.487,55.735 657.373,55.108L657.498,54.927L657.675,55.034L657.677,55.041C657.854,55.615 658.077,56.191 658.365,56.702C658.645,57.203 659.063,57.691 659.526,57.628C660.003,57.589 660.339,57.039 660.548,56.503C660.758,55.952 660.896,55.349 660.981,54.753L660.982,54.747L661.132,54.635L661.245,54.769Z" style="fill:rgb(31,44,71);fill-rule:nonzero;"/>
                    <path d="M670.96,54.753C671.046,55.349 671.185,55.952 671.395,56.503C671.603,57.039 671.938,57.589 672.415,57.628C672.878,57.691 673.298,57.203 673.576,56.702C673.865,56.191 674.087,55.615 674.265,55.041L674.267,55.034L674.462,54.931L674.568,55.108C674.454,55.735 674.274,56.341 673.979,56.921C673.83,57.21 673.646,57.49 673.39,57.73C673.143,57.969 672.758,58.165 672.359,58.112C671.967,58.066 671.642,57.811 671.438,57.538C671.227,57.26 671.092,56.955 670.992,56.647C670.792,56.03 670.712,55.404 670.696,54.769L670.825,54.634L670.959,54.747L670.96,54.753Z" style="fill:rgb(31,44,71);fill-rule:nonzero;"/>
                    <path d="M658.347,62.876C657.01,62.876 655.926,62.034 655.926,60.994C655.926,59.954 657.01,59.112 658.347,59.112C659.683,59.112 660.766,59.954 660.766,60.994C660.766,62.034 659.683,62.876 658.347,62.876Z" style="fill:rgb(247,163,148);fill-rule:nonzero;"/>
                    <path d="M672.661,62.876C671.324,62.876 670.241,62.034 670.241,60.994C670.241,59.954 671.324,59.112 672.661,59.112C673.998,59.112 675.081,59.954 675.081,60.994C675.081,62.034 673.998,62.876 672.661,62.876Z" style="fill:rgb(247,163,148);fill-rule:nonzero;"/>
                    <path d="M649.848,55.052C649.848,55.052 667.394,53.204 675.125,42.739C675.125,42.739 674.787,52.374 679.264,52.374C679.264,52.374 680.72,37.024 667.604,37.024C654.488,37.024 651.123,47.703 649.848,55.052Z" style="fill-rule:nonzero;"/>
                </g>
            </g>
        </g>
    </g>
</svg>
