<?xml version="1.0" encoding="UTF-8" standalone="no"?>
<!DOCTYPE svg PUBLIC "-//W3C//DTD SVG 1.1//EN" "http://www.w3.org/Graphics/SVG/1.1/DTD/svg11.dtd">
<svg width="100%" height="100%" viewBox="0 0 365 102" version="1.1" xmlns="http://www.w3.org/2000/svg" xmlns:xlink="http://www.w3.org/1999/xlink" xml:space="preserve" xmlns:serif="http://www.serif.com/" style="fill-rule:evenodd;clip-rule:evenodd;stroke-linejoin:round;stroke-miterlimit:2;">
    <g transform="matrix(1,0,0,1,-15.9908,-90.2393)">
        <path d="M120.145,190.466L143.17,190.466L143.17,146.312C143.17,125.996 131.116,114.077 112.425,114.077C101.454,114.077 91.973,120.172 86.962,128.163C81.815,119.088 72.605,114.077 61.228,114.077C51.341,114.077 43.621,118.276 39.151,124.371L39.151,114.89L15.991,114.89L15.991,190.466L39.151,190.466L39.151,149.427C39.151,139.54 44.84,134.122 53.644,134.122C62.447,134.122 68.136,139.54 68.136,149.427L68.136,190.466L91.161,190.466L91.161,149.427C91.161,139.54 96.849,134.122 105.653,134.122C114.457,134.122 120.145,139.54 120.145,149.427L120.145,190.466ZM146.286,152.542C146.286,176.38 161.049,191.55 179.469,191.55C190.71,191.55 198.701,186.403 202.9,179.766L202.9,190.466L226.061,190.466L226.061,114.89L202.9,114.89L202.9,125.59C198.837,118.953 190.846,113.806 179.604,113.806C161.049,113.806 146.286,128.705 146.286,152.542ZM202.9,152.678C202.9,164.732 195.18,171.369 186.376,171.369C177.708,171.369 169.852,164.597 169.852,152.542C169.852,140.488 177.708,133.987 186.376,133.987C195.18,133.987 202.9,140.624 202.9,152.678ZM234.322,190.466L257.483,190.466L257.483,158.773L280.508,190.466L309.222,190.466L277.528,152.813L308.951,114.89L280.373,114.89L257.483,145.635L257.483,90.239L234.322,90.239L234.322,190.466ZM342.811,132.362C350.531,132.362 357.033,137.102 357.033,145.364L328.048,145.364C329.402,136.967 335.226,132.362 342.811,132.362ZM378.974,165.409L354.324,165.409C352.427,169.473 348.771,172.723 342.269,172.723C334.82,172.723 328.725,168.118 327.913,158.231L380.328,158.231C380.599,155.928 380.735,153.626 380.735,151.459C380.735,128.434 365.159,113.806 343.082,113.806C320.599,113.806 304.888,128.705 304.888,152.678C304.888,176.651 320.87,191.55 343.082,191.55C361.908,191.55 375.317,180.172 378.974,165.409Z" style="fill:rgb(227,28,28);fill-rule:nonzero;"/>
    </g>
</svg>
