<?xml version="1.0" encoding="UTF-8" standalone="no"?>
<!DOCTYPE svg PUBLIC "-//W3C//DTD SVG 1.1//EN" "http://www.w3.org/Graphics/SVG/1.1/DTD/svg11.dtd">
<svg width="100%" height="100%" viewBox="0 0 289 73" version="1.1" xmlns="http://www.w3.org/2000/svg" xmlns:xlink="http://www.w3.org/1999/xlink" xml:space="preserve" xmlns:serif="http://www.serif.com/" style="fill-rule:evenodd;clip-rule:evenodd;stroke-linejoin:round;stroke-miterlimit:2;">
    <g transform="matrix(1,0,0,1,-5963.95,-7419.68)">
        <g transform="matrix(0.358245,0,0,0.358245,5717.27,7343.36)">
            <g transform="matrix(1.02353,0,0,1.02333,779.118,-93.801)">
                <path d="M124.228,479.495L124.228,479.046C123.415,478.703 122.537,478.34 121.595,477.954C120.653,477.569 120.011,477.269 119.669,477.055L119.669,435.378L119.155,435.378L108.944,438.203L108.944,438.589L114.21,440.579L114.21,446.038C114.21,447.194 114.221,448.328 114.242,449.441C114.264,450.555 114.296,451.432 114.339,452.074C113.397,451.775 112.359,451.518 111.224,451.304C110.09,451.09 108.88,450.983 107.596,450.983C105.155,450.983 102.929,451.389 100.917,452.203C98.905,453.016 97.182,454.14 95.748,455.574C94.313,457.008 93.2,458.689 92.408,460.615C91.616,462.542 91.22,464.618 91.22,466.845C91.22,469.328 91.563,471.522 92.248,473.427C92.933,475.332 93.853,476.937 95.009,478.243C96.165,479.549 97.481,480.512 98.958,481.133C100.435,481.754 101.966,482.064 103.55,482.064C106.076,482.064 108.184,481.55 109.876,480.523C111.567,479.495 113.033,477.911 114.274,475.771L114.339,475.771L114.339,482.193L114.724,482.193L124.228,479.495ZM114.274,473.331C113.932,475.171 113.129,476.691 111.866,477.89C110.603,479.089 109.094,479.688 107.339,479.688C105.669,479.688 104.203,479.303 102.94,478.532C101.677,477.762 100.617,476.745 99.761,475.482C98.905,474.219 98.263,472.763 97.835,471.115C97.406,469.467 97.192,467.765 97.192,466.01C97.192,464.254 97.374,462.542 97.738,460.872C98.102,459.203 98.669,457.726 99.44,456.441C100.211,455.157 101.185,454.129 102.362,453.359C103.539,452.588 104.963,452.203 106.632,452.203C107.874,452.203 109.223,452.738 110.678,453.808C112.134,454.879 113.333,456.291 114.274,458.047L114.274,473.331Z" style="fill-rule:nonzero;"/>
                <path d="M156.658,466.267C156.658,463.698 156.198,461.461 155.278,459.556C154.357,457.651 153.18,456.067 151.746,454.804C150.312,453.541 148.717,452.588 146.961,451.946C145.206,451.304 143.472,450.983 141.76,450.983C139.448,450.983 137.339,451.411 135.434,452.267C133.529,453.123 131.902,454.258 130.554,455.671C129.205,457.083 128.156,458.71 127.407,460.551C126.658,462.392 126.283,464.297 126.283,466.267C126.283,469.007 126.765,471.393 127.728,473.427C128.691,475.46 129.933,477.13 131.453,478.436C132.973,479.742 134.632,480.694 136.43,481.294C138.228,481.893 139.962,482.193 141.631,482.193C143.644,482.193 145.559,481.786 147.379,480.973C149.198,480.159 150.793,479.025 152.163,477.569C153.533,476.113 154.625,474.412 155.438,472.464C156.252,470.516 156.658,468.45 156.658,466.267ZM150.686,466.202C150.686,467.701 150.526,469.328 150.204,471.083C149.883,472.838 149.37,474.476 148.663,475.996C147.957,477.515 147.036,478.778 145.902,479.784C144.767,480.791 143.365,481.294 141.696,481.294C140.026,481.294 138.592,480.898 137.393,480.106C136.194,479.314 135.21,478.243 134.439,476.895C133.668,475.546 133.112,473.994 132.769,472.239C132.427,470.484 132.256,468.621 132.256,466.652C132.256,464.854 132.459,463.088 132.866,461.354C133.272,459.62 133.872,458.057 134.664,456.666C135.456,455.275 136.408,454.151 137.521,453.294C138.635,452.438 139.897,452.01 141.31,452.01C143.066,452.01 144.543,452.47 145.741,453.391C146.94,454.311 147.903,455.478 148.631,456.891C149.359,458.304 149.883,459.845 150.204,461.514C150.526,463.184 150.686,464.747 150.686,466.202Z" style="fill-rule:nonzero;"/>
                <path d="M192.235,454.515C192.235,453.787 192,453.166 191.529,452.652C191.058,452.139 190.459,451.882 189.731,451.882C189.217,451.882 188.767,451.957 188.382,452.106C187.997,452.256 187.633,452.428 187.29,452.62C186.948,452.813 186.573,452.984 186.167,453.134C185.76,453.284 185.3,453.359 184.786,453.359C184.272,453.359 183.833,453.337 183.469,453.294C183.106,453.252 182.667,453.145 182.153,452.973C180.783,452.246 179.467,451.732 178.204,451.432C176.941,451.132 175.496,450.983 173.869,450.983C172.071,450.983 170.412,451.24 168.892,451.753C167.372,452.267 166.056,452.963 164.943,453.84C163.829,454.718 162.963,455.756 162.342,456.955C161.721,458.154 161.411,459.438 161.411,460.808C161.411,462.991 161.935,464.79 162.984,466.202C164.033,467.615 165.499,468.685 167.383,469.413L167.383,469.606C166.313,469.734 165.317,470.002 164.397,470.409C163.476,470.815 162.674,471.318 161.989,471.918C161.304,472.517 160.768,473.181 160.383,473.909C159.998,474.636 159.805,475.407 159.805,476.22C159.805,477.847 160.394,479.153 161.571,480.138C162.748,481.122 164.429,481.743 166.612,482L166.612,482.128C165.713,482.685 164.803,483.252 163.883,483.83C162.963,484.408 162.128,485.029 161.378,485.693C160.629,486.356 160.008,487.052 159.516,487.78C159.024,488.507 158.778,489.321 158.778,490.22C158.778,492.66 160.073,494.576 162.663,495.967C165.253,497.359 168.881,498.055 173.548,498.055C175.988,498.055 178.225,497.723 180.259,497.059C182.292,496.396 184.058,495.486 185.557,494.33C187.055,493.174 188.222,491.836 189.056,490.316C189.891,488.796 190.309,487.202 190.309,485.532C190.309,484.248 190.084,483.081 189.634,482.032C189.185,480.983 188.532,480.052 187.676,479.239C186.82,478.425 185.792,477.783 184.593,477.312C183.395,476.841 182.046,476.606 180.548,476.606L170.273,476.606C169.545,476.606 168.796,476.563 168.025,476.477C167.254,476.392 166.548,476.22 165.906,475.963C165.264,475.707 164.728,475.353 164.3,474.904C163.872,474.454 163.658,473.887 163.658,473.202C163.658,472.346 164.065,471.639 164.878,471.083C165.692,470.526 166.783,470.205 168.153,470.12C169.01,470.12 169.748,470.162 170.369,470.248C170.99,470.334 171.6,470.377 172.199,470.377C176.352,470.377 179.606,469.531 181.96,467.84C184.315,466.149 185.492,463.612 185.492,460.23C185.492,458.86 185.268,457.747 184.818,456.891C184.369,456.034 183.823,455.114 183.181,454.129L183.437,453.872C183.951,454.172 184.529,454.504 185.171,454.868C185.813,455.232 186.445,455.564 187.066,455.863C187.686,456.163 188.254,456.42 188.767,456.634C189.281,456.848 189.667,456.955 189.923,456.955C190.566,456.955 191.111,456.709 191.561,456.216C192.011,455.724 192.235,455.157 192.235,454.515ZM180.355,460.23C180.355,461.429 180.205,462.574 179.905,463.666C179.606,464.757 179.156,465.731 178.557,466.588C177.957,467.444 177.219,468.129 176.341,468.643C175.464,469.156 174.447,469.413 173.291,469.413C171.407,469.413 169.812,468.632 168.507,467.069C167.201,465.507 166.548,463.441 166.548,460.872C166.548,459.759 166.698,458.667 166.998,457.597C167.297,456.527 167.736,455.574 168.314,454.739C168.892,453.905 169.609,453.241 170.465,452.749C171.322,452.256 172.285,452.01 173.355,452.01C174.511,452.01 175.528,452.235 176.405,452.684C177.283,453.134 178.011,453.733 178.589,454.483C179.167,455.232 179.606,456.099 179.905,457.083C180.205,458.068 180.355,459.117 180.355,460.23ZM186.006,488.165C186.006,490.006 185.439,491.59 184.304,492.917C183.17,494.244 181.853,495.208 180.355,495.807C179.627,496.064 178.803,496.256 177.883,496.385C176.962,496.513 175.86,496.578 174.575,496.578C173.505,496.578 172.338,496.406 171.075,496.064C169.812,495.721 168.624,495.197 167.511,494.49C166.398,493.784 165.467,492.917 164.718,491.89C163.969,490.862 163.594,489.663 163.594,488.293C163.594,486.966 163.979,485.746 164.75,484.633C165.521,483.52 166.912,482.706 168.924,482.193C169.523,482.107 170.294,482.021 171.236,481.936C172.178,481.85 173.098,481.807 173.997,481.807C176.48,481.807 178.428,481.904 179.841,482.096C181.254,482.289 182.431,482.621 183.373,483.092C184.101,483.434 184.722,484.055 185.235,484.954C185.749,485.853 186.006,486.923 186.006,488.165Z" style="fill-rule:nonzero;"/>
                <path d="M229.418,438.653C229.418,438.053 229.257,437.55 228.936,437.144C228.615,436.737 228.208,436.405 227.716,436.148C227.223,435.891 226.667,435.699 226.046,435.57C225.425,435.442 224.794,435.378 224.152,435.378C222.782,435.378 221.444,435.56 220.138,435.923C218.832,436.287 217.634,436.78 216.542,437.401C215.45,438.021 214.476,438.749 213.62,439.584C212.764,440.419 212.1,441.329 211.629,442.313C211.158,443.255 210.869,444.593 210.762,446.327C210.655,448.061 210.602,449.827 210.602,451.625L206.62,451.625L205.914,454.45L210.537,454.45L210.537,479.303C210.537,479.645 210.345,479.934 209.959,480.17C209.574,480.405 209.093,480.598 208.515,480.748C207.937,480.898 207.337,481.026 206.716,481.133C206.096,481.24 205.55,481.315 205.079,481.358L205.079,482L221.39,482L221.39,481.358C220.748,481.272 220.117,481.208 219.496,481.165C218.875,481.122 218.308,481.037 217.794,480.908C217.28,480.78 216.852,480.609 216.51,480.395C216.167,480.18 215.953,479.881 215.868,479.495L215.868,454.45L222.675,454.45L223.509,451.625L215.932,451.625C215.932,450.084 215.942,448.703 215.964,447.483C215.985,446.263 216.039,444.796 216.124,443.084C216.21,441.757 216.435,440.697 216.799,439.905C217.163,439.113 217.591,438.514 218.083,438.107C218.575,437.7 219.057,437.433 219.528,437.304C219.999,437.176 220.363,437.112 220.62,437.112C221.133,437.283 221.594,437.625 222,438.139C222.407,438.653 222.835,439.177 223.285,439.712C223.734,440.248 224.227,440.718 224.762,441.125C225.297,441.532 225.95,441.735 226.72,441.735C227.534,441.735 228.187,441.414 228.679,440.772C229.171,440.13 229.418,439.423 229.418,438.653Z" style="fill-rule:nonzero;"/>
                <path d="M254.013,466.267C254.013,463.698 253.553,461.461 252.632,459.556C251.712,457.651 250.535,456.067 249.1,454.804C247.666,453.541 246.071,452.588 244.316,451.946C242.561,451.304 240.827,450.983 239.115,450.983C236.803,450.983 234.694,451.411 232.789,452.267C230.884,453.123 229.257,454.258 227.908,455.671C226.56,457.083 225.511,458.71 224.762,460.551C224.013,462.392 223.638,464.297 223.638,466.267C223.638,469.007 224.12,471.393 225.083,473.427C226.046,475.46 227.288,477.13 228.807,478.436C230.327,479.742 231.986,480.694 233.784,481.294C235.583,481.893 237.316,482.193 238.986,482.193C240.998,482.193 242.914,481.786 244.734,480.973C246.553,480.159 248.148,479.025 249.518,477.569C250.888,476.113 251.98,474.412 252.793,472.464C253.606,470.516 254.013,468.45 254.013,466.267ZM248.041,466.202C248.041,467.701 247.88,469.328 247.559,471.083C247.238,472.838 246.724,474.476 246.018,475.996C245.312,477.515 244.391,478.778 243.257,479.784C242.122,480.791 240.72,481.294 239.05,481.294C237.381,481.294 235.946,480.898 234.748,480.106C233.549,479.314 232.564,478.243 231.794,476.895C231.023,475.546 230.466,473.994 230.124,472.239C229.781,470.484 229.61,468.621 229.61,466.652C229.61,464.854 229.814,463.088 230.22,461.354C230.627,459.62 231.226,458.057 232.018,456.666C232.81,455.275 233.763,454.151 234.876,453.294C235.989,452.438 237.252,452.01 238.665,452.01C240.42,452.01 241.897,452.47 243.096,453.391C244.295,454.311 245.258,455.478 245.986,456.891C246.714,458.304 247.238,459.845 247.559,461.514C247.88,463.184 248.041,464.747 248.041,466.202Z" style="fill-rule:nonzero;"/>
                <path d="M286.829,466.267C286.829,463.698 286.368,461.461 285.448,459.556C284.527,457.651 283.35,456.067 281.916,454.804C280.482,453.541 278.887,452.588 277.132,451.946C275.376,451.304 273.642,450.983 271.93,450.983C269.618,450.983 267.51,451.411 265.604,452.267C263.699,453.123 262.072,454.258 260.724,455.671C259.375,457.083 258.326,458.71 257.577,460.551C256.828,462.392 256.453,464.297 256.453,466.267C256.453,469.007 256.935,471.393 257.898,473.427C258.862,475.46 260.103,477.13 261.623,478.436C263.143,479.742 264.802,480.694 266.6,481.294C268.398,481.893 270.132,482.193 271.802,482.193C273.814,482.193 275.73,481.786 277.549,480.973C279.369,480.159 280.963,479.025 282.333,477.569C283.703,476.113 284.795,474.412 285.608,472.464C286.422,470.516 286.829,468.45 286.829,466.267ZM280.856,466.202C280.856,467.701 280.696,469.328 280.375,471.083C280.054,472.838 279.54,474.476 278.833,475.996C278.127,477.515 277.207,478.778 276.072,479.784C274.938,480.791 273.535,481.294 271.866,481.294C270.196,481.294 268.762,480.898 267.563,480.106C266.364,479.314 265.38,478.243 264.609,476.895C263.838,475.546 263.282,473.994 262.939,472.239C262.597,470.484 262.426,468.621 262.426,466.652C262.426,464.854 262.629,463.088 263.036,461.354C263.442,459.62 264.042,458.057 264.834,456.666C265.626,455.275 266.578,454.151 267.692,453.294C268.805,452.438 270.068,452.01 271.48,452.01C273.236,452.01 274.713,452.47 275.911,453.391C277.11,454.311 278.074,455.478 278.801,456.891C279.529,458.304 280.054,459.845 280.375,461.514C280.696,463.184 280.856,464.747 280.856,466.202Z" style="fill-rule:nonzero;"/>
                <path d="M322.277,479.495L322.277,479.046C321.464,478.703 320.586,478.34 319.644,477.954C318.702,477.569 318.06,477.269 317.717,477.055L317.717,435.378L317.204,435.378L306.993,438.203L306.993,438.589L312.259,440.579L312.259,446.038C312.259,447.194 312.27,448.328 312.291,449.441C312.312,450.555 312.345,451.432 312.387,452.074C311.446,451.775 310.407,451.518 309.273,451.304C308.138,451.09 306.929,450.983 305.644,450.983C303.204,450.983 300.978,451.389 298.966,452.203C296.954,453.016 295.23,454.14 293.796,455.574C292.362,457.008 291.249,458.689 290.457,460.615C289.665,462.542 289.269,464.618 289.269,466.845C289.269,469.328 289.611,471.522 290.296,473.427C290.981,475.332 291.902,476.937 293.058,478.243C294.214,479.549 295.53,480.512 297.007,481.133C298.484,481.754 300.015,482.064 301.599,482.064C304.125,482.064 306.233,481.55 307.924,480.523C309.615,479.495 311.082,477.911 312.323,475.771L312.387,475.771L312.387,482.193L312.773,482.193L322.277,479.495ZM312.323,473.331C311.981,475.171 311.178,476.691 309.915,477.89C308.652,479.089 307.143,479.688 305.388,479.688C303.718,479.688 302.252,479.303 300.989,478.532C299.726,477.762 298.666,476.745 297.81,475.482C296.954,474.219 296.311,472.763 295.883,471.115C295.455,469.467 295.241,467.765 295.241,466.01C295.241,464.254 295.423,462.542 295.787,460.872C296.151,459.203 296.718,457.726 297.489,456.441C298.259,455.157 299.233,454.129 300.411,453.359C301.588,452.588 303.012,452.203 304.681,452.203C305.923,452.203 307.271,452.738 308.727,453.808C310.183,454.879 311.381,456.291 312.323,458.047L312.323,473.331Z" style="fill-rule:nonzero;"/>
                <path d="M360.166,454.386C360.166,453.402 359.791,452.588 359.042,451.946C358.293,451.304 357.383,450.983 356.313,450.983C354.985,450.983 353.808,451.347 352.781,452.074C351.753,452.802 350.875,453.669 350.148,454.675C349.42,455.681 348.82,456.677 348.35,457.661C347.879,458.646 347.536,459.395 347.322,459.909L347.194,459.909L347.322,450.983L346.937,450.983L338.524,454.258L338.524,454.643C339.038,454.857 339.552,455.125 340.065,455.446C340.579,455.767 341.029,456.034 341.414,456.249C341.714,456.463 341.896,456.655 341.96,456.826C342.024,456.998 342.056,457.255 342.056,457.597L342.056,479.303C342.056,479.988 341.703,480.48 340.997,480.78C340.29,481.08 339.445,481.272 338.46,481.358L338.46,482L352.845,482L352.845,481.358C352.417,481.272 351.914,481.219 351.336,481.197C350.758,481.176 350.201,481.122 349.666,481.037C349.131,480.951 348.649,480.801 348.221,480.587C347.793,480.373 347.515,480.073 347.386,479.688L347.386,461.193C347.643,460.551 347.943,459.877 348.285,459.17C348.628,458.464 349.013,457.833 349.441,457.276C349.869,456.719 350.33,456.259 350.822,455.895C351.314,455.531 351.817,455.349 352.331,455.349C352.93,455.349 353.401,455.467 353.744,455.703C354.086,455.938 354.407,456.206 354.707,456.505C355.007,456.805 355.36,457.073 355.767,457.308C356.173,457.544 356.719,457.661 357.404,457.661C358.132,457.661 358.774,457.351 359.331,456.73C359.887,456.109 360.166,455.328 360.166,454.386Z" style="fill-rule:nonzero;"/>
                <path d="M387.33,472.239L386.816,472.11C386.302,473.694 385.243,475.032 383.637,476.124C382.032,477.216 380.159,477.762 378.018,477.762C376.049,477.762 374.315,477.398 372.817,476.67C371.318,475.942 370.077,474.947 369.092,473.684C368.107,472.421 367.358,470.965 366.844,469.317C366.331,467.669 366.074,465.945 366.074,464.147C366.074,463.676 366.095,463.216 366.138,462.767C366.181,462.317 366.202,461.921 366.202,461.579L386.816,461.579C386.688,459.781 386.281,458.218 385.596,456.891C384.911,455.564 384.023,454.461 382.931,453.583C381.839,452.706 380.555,452.053 379.078,451.625C377.601,451.197 376.028,450.983 374.358,450.983C372.303,450.983 370.43,451.421 368.739,452.299C367.048,453.177 365.614,454.322 364.436,455.735C363.259,457.148 362.349,458.742 361.707,460.519C361.065,462.296 360.744,464.083 360.744,465.881C360.744,468.107 361.086,470.216 361.771,472.207C362.456,474.197 363.43,475.931 364.693,477.408C365.956,478.885 367.487,480.031 369.285,480.844C371.083,481.658 373.074,482.064 375.257,482.064C377.012,482.064 378.607,481.743 380.041,481.101C381.475,480.459 382.706,479.645 383.734,478.661C384.761,477.676 385.575,476.595 386.174,475.418C386.773,474.24 387.159,473.181 387.33,472.239ZM380.459,457.854C380.459,458.453 380.384,458.903 380.234,459.203C380.084,459.502 379.859,459.823 379.56,460.166C379.131,460.337 378.639,460.444 378.083,460.487C377.526,460.53 376.927,460.551 376.284,460.551C375.3,460.551 374.401,460.562 373.587,460.583C372.774,460.605 371.993,460.626 371.243,460.647C370.494,460.669 369.734,460.68 368.964,460.68L366.331,460.68C366.416,460.166 366.652,459.427 367.037,458.464C367.422,457.501 367.968,456.548 368.675,455.606C369.381,454.664 370.216,453.84 371.179,453.134C372.142,452.428 373.223,452.074 374.422,452.074C376.263,452.074 377.729,452.642 378.821,453.776C379.913,454.911 380.459,456.27 380.459,457.854Z" style="fill-rule:nonzero;"/>
                <path d="M415.779,472.817L415.265,472.56C414.237,474.272 412.953,475.567 411.412,476.445C409.871,477.323 407.773,477.762 405.118,477.762C403.449,477.762 401.94,477.451 400.591,476.83C399.242,476.21 398.097,475.332 397.155,474.197C396.213,473.063 395.486,471.693 394.972,470.088C394.458,468.482 394.201,466.716 394.201,464.79C394.201,463.034 394.437,461.386 394.908,459.845C395.379,458.304 396.021,456.955 396.834,455.799C397.648,454.643 398.611,453.723 399.724,453.038C400.837,452.353 402.057,452.01 403.384,452.01C405.183,452.01 406.499,452.535 407.334,453.583C408.169,454.632 408.586,455.949 408.586,457.533C408.586,458.389 408.479,459.117 408.265,459.716C408.436,460.358 408.811,460.894 409.389,461.322C409.967,461.75 410.62,461.964 411.348,461.964C412.247,461.964 413.028,461.632 413.691,460.969C414.355,460.305 414.687,459.524 414.687,458.625C414.687,457.383 414.355,456.291 413.691,455.349C413.028,454.408 412.161,453.616 411.091,452.973C410.02,452.331 408.8,451.839 407.43,451.496C406.06,451.154 404.669,450.983 403.256,450.983C401.158,450.983 399.221,451.411 397.444,452.267C395.668,453.123 394.137,454.258 392.853,455.671C391.568,457.083 390.562,458.721 389.834,460.583C389.107,462.446 388.743,464.404 388.743,466.459C388.743,468.643 389.096,470.698 389.802,472.624C390.509,474.551 391.483,476.231 392.724,477.665C393.966,479.099 395.464,480.213 397.22,481.005C398.975,481.797 400.88,482.193 402.935,482.193C404.562,482.193 406.071,481.957 407.462,481.486C408.854,481.015 410.106,480.341 411.219,479.463C412.332,478.586 413.274,477.58 414.045,476.445C414.815,475.311 415.393,474.101 415.779,472.817Z" style="fill-rule:nonzero;"/>
                <path d="M426.567,440.836C426.567,439.851 426.235,439.038 425.572,438.396C424.908,437.754 424.084,437.433 423.099,437.433C422.115,437.433 421.291,437.754 420.627,438.396C419.963,439.038 419.632,439.851 419.632,440.836C419.632,441.778 419.974,442.591 420.659,443.276C421.344,443.961 422.158,444.304 423.099,444.304C424.084,444.304 424.908,443.972 425.572,443.309C426.235,442.645 426.567,441.821 426.567,440.836ZM430.163,482L430.163,481.358C429.735,481.272 429.297,481.219 428.847,481.197C428.397,481.176 427.98,481.122 427.595,481.037C427.209,480.951 426.878,480.812 426.599,480.619C426.321,480.427 426.139,480.116 426.053,479.688L426.053,450.983L425.668,450.983L416.999,453.808L416.999,454.194C417.598,454.408 418.165,454.643 418.701,454.9C419.236,455.157 419.696,455.414 420.081,455.671C420.381,455.885 420.563,456.12 420.627,456.377C420.691,456.634 420.723,456.934 420.723,457.276L420.723,479.303C420.723,479.688 420.584,480.009 420.306,480.266C420.028,480.523 419.685,480.726 419.278,480.876C418.872,481.026 418.412,481.133 417.898,481.197C417.384,481.261 416.87,481.315 416.357,481.358L416.357,482L430.163,482Z" style="fill-rule:nonzero;"/>
                <path d="M464.52,464.982C464.52,463.27 464.285,461.579 463.814,459.909C463.343,458.239 462.626,456.741 461.662,455.414C460.699,454.087 459.479,453.016 458.002,452.203C456.525,451.389 454.78,450.983 452.768,450.983C451.527,450.983 450.381,451.218 449.333,451.689C448.284,452.16 447.31,452.749 446.411,453.455C445.512,454.161 444.698,454.943 443.97,455.799C443.243,456.655 442.579,457.49 441.98,458.304L441.915,458.175L441.915,450.983L441.53,450.983L432.09,454.707L432.09,455.093C432.604,455.307 433.289,455.617 434.145,456.024C435.001,456.43 435.622,456.741 436.007,456.955C436.307,457.169 436.489,457.362 436.553,457.533C436.617,457.704 436.649,457.961 436.649,458.304L436.649,493.88C436.649,494.223 436.468,494.523 436.104,494.779C435.74,495.036 435.29,495.25 434.755,495.422C434.22,495.593 433.653,495.732 433.053,495.839C432.454,495.946 431.94,496.021 431.512,496.064L431.512,496.77L447.31,496.77L447.31,496.064C446.882,496.021 446.379,495.978 445.801,495.935C445.223,495.893 444.666,495.818 444.131,495.711C443.596,495.604 443.136,495.454 442.75,495.261C442.365,495.068 442.129,494.779 442.044,494.394L442.044,491.376C442.044,490.134 442.033,488.871 442.012,487.587C441.99,486.303 441.969,485.082 441.947,483.927C441.926,482.771 441.915,481.893 441.915,481.294C442.729,481.465 443.51,481.572 444.259,481.615C445.009,481.658 445.768,481.679 446.539,481.679C449.322,481.679 451.826,481.261 454.053,480.427C456.279,479.592 458.163,478.436 459.704,476.959C461.245,475.482 462.433,473.716 463.268,471.661C464.103,469.606 464.52,467.38 464.52,464.982ZM458.741,466.845C458.741,468.814 458.473,470.633 457.938,472.303C457.403,473.973 456.686,475.407 455.786,476.606C454.887,477.804 453.86,478.746 452.704,479.431C451.548,480.116 450.349,480.459 449.108,480.459C447.695,480.459 446.539,480.213 445.64,479.72C444.741,479.228 444.035,478.586 443.521,477.794C443.007,477.002 442.643,476.124 442.429,475.161C442.215,474.197 442.065,473.266 441.98,472.367C441.937,471.383 441.915,470.398 441.915,469.413L441.915,465.303C441.915,464.575 441.926,463.73 441.947,462.767C441.969,461.803 441.98,460.894 441.98,460.037C441.98,459.781 442.14,459.374 442.461,458.817C442.782,458.261 443.253,457.715 443.874,457.18C444.495,456.645 445.244,456.174 446.122,455.767C446.999,455.36 447.995,455.157 449.108,455.157C450.735,455.157 452.158,455.467 453.378,456.088C454.598,456.709 455.605,457.544 456.397,458.592C457.189,459.641 457.777,460.872 458.163,462.285C458.548,463.698 458.741,465.218 458.741,466.845Z" style="fill-rule:nonzero;"/>
                <path d="M493.611,472.239L493.097,472.11C492.583,473.694 491.524,475.032 489.918,476.124C488.313,477.216 486.44,477.762 484.299,477.762C482.33,477.762 480.596,477.398 479.098,476.67C477.599,475.942 476.358,474.947 475.373,473.684C474.388,472.421 473.639,470.965 473.125,469.317C472.612,467.669 472.355,465.945 472.355,464.147C472.355,463.676 472.376,463.216 472.419,462.767C472.462,462.317 472.483,461.921 472.483,461.579L493.097,461.579C492.969,459.781 492.562,458.218 491.877,456.891C491.192,455.564 490.304,454.461 489.212,453.583C488.12,452.706 486.836,452.053 485.359,451.625C483.882,451.197 482.309,450.983 480.639,450.983C478.584,450.983 476.711,451.421 475.02,452.299C473.329,453.177 471.895,454.322 470.717,455.735C469.54,457.148 468.63,458.742 467.988,460.519C467.346,462.296 467.025,464.083 467.025,465.881C467.025,468.107 467.367,470.216 468.052,472.207C468.737,474.197 469.711,475.931 470.974,477.408C472.237,478.885 473.768,480.031 475.566,480.844C477.364,481.658 479.355,482.064 481.538,482.064C483.293,482.064 484.888,481.743 486.322,481.101C487.756,480.459 488.987,479.645 490.015,478.661C491.042,477.676 491.856,476.595 492.455,475.418C493.054,474.24 493.44,473.181 493.611,472.239ZM486.74,457.854C486.74,458.453 486.665,458.903 486.515,459.203C486.365,459.502 486.14,459.823 485.841,460.166C485.412,460.337 484.92,460.444 484.364,460.487C483.807,460.53 483.208,460.551 482.565,460.551C481.581,460.551 480.682,460.562 479.868,460.583C479.055,460.605 478.274,460.626 477.524,460.647C476.775,460.669 476.015,460.68 475.245,460.68L472.612,460.68C472.697,460.166 472.933,459.427 473.318,458.464C473.703,457.501 474.249,456.548 474.956,455.606C475.662,454.664 476.497,453.84 477.46,453.134C478.423,452.428 479.504,452.074 480.703,452.074C482.544,452.074 484.01,452.642 485.102,453.776C486.194,454.911 486.74,456.27 486.74,457.854Z" style="fill-rule:nonzero;"/>
                <path d="M517.436,472.624C517.436,470.441 516.762,468.6 515.413,467.101C514.064,465.603 512.427,464.618 510.5,464.147C509.687,463.933 508.724,463.709 507.611,463.473C506.497,463.238 505.47,463.013 504.528,462.799C503.158,462.456 502.024,461.943 501.124,461.258C500.225,460.573 499.776,459.438 499.776,457.854C499.776,456.869 499.947,456.002 500.29,455.253C500.632,454.504 501.071,453.883 501.606,453.391C502.141,452.898 502.762,452.524 503.468,452.267C504.175,452.01 504.892,451.882 505.62,451.882C506.818,451.882 507.878,452.096 508.799,452.524C509.719,452.952 510.543,453.562 511.271,454.354C511.999,455.146 512.662,456.088 513.262,457.18C513.861,458.271 514.46,459.459 515.06,460.744L515.574,460.615L514.803,452.652C513.561,452.181 512.256,451.785 510.886,451.464C509.516,451.143 507.932,450.983 506.133,450.983C504.721,450.983 503.394,451.186 502.152,451.593C500.91,451.999 499.819,452.588 498.877,453.359C497.935,454.129 497.186,455.05 496.629,456.12C496.073,457.19 495.794,458.389 495.794,459.716C495.794,461.643 496.297,463.291 497.304,464.661C498.31,466.031 499.626,466.994 501.253,467.551C502.109,467.851 503.072,468.129 504.143,468.386C505.213,468.643 506.326,468.878 507.482,469.092C508.938,469.392 510.083,469.981 510.918,470.858C511.753,471.736 512.17,472.838 512.17,474.165C512.17,476.606 511.56,478.414 510.34,479.592C509.12,480.769 507.482,481.358 505.427,481.358C504.014,481.358 502.794,481.047 501.767,480.427C500.739,479.806 499.862,479.014 499.134,478.051C498.406,477.087 497.785,476.038 497.271,474.904C496.758,473.769 496.33,472.688 495.987,471.661L495.473,471.661L495.473,480.138C496.886,480.78 498.427,481.272 500.097,481.615C501.767,481.957 503.543,482.128 505.427,482.128C507.011,482.128 508.52,481.957 509.954,481.615C511.389,481.272 512.662,480.716 513.775,479.945C514.889,479.174 515.777,478.179 516.441,476.959C517.104,475.739 517.436,474.294 517.436,472.624Z" style="fill-rule:nonzero;"/>
            </g>
            <g transform="matrix(2.74045,0,0,2.73992,441.908,-987.943)">
                <path d="M103.55,459.331C104.021,459.417 104.685,459.545 105.541,459.716C106.397,459.845 107.232,460.102 108.045,460.487C108.559,460.744 109.308,461.129 110.293,461.643C111.278,462.157 112.027,462.542 112.541,462.799C114.296,463.741 115.559,464.854 116.329,466.138C116.458,466.352 116.608,466.459 116.779,466.459C116.822,466.459 116.929,466.416 117.1,466.331C118.17,465.603 118.77,465.196 118.898,465.111C119.626,464.554 120.386,464.051 121.178,463.602C121.97,463.152 122.965,462.638 124.164,462.06C125.363,461.482 126.155,461.086 126.54,460.872C126.669,460.787 126.84,460.744 127.054,460.744C127.268,460.744 127.546,460.829 127.889,461.001C127.974,461.043 128.092,461.097 128.242,461.161C128.392,461.225 128.509,461.279 128.595,461.322C128.681,461.365 128.777,461.439 128.884,461.547C128.991,461.654 129.045,461.771 129.045,461.9C129.087,462.285 128.724,462.67 127.953,463.056C126.583,463.826 125.534,464.383 124.806,464.725C123.565,465.325 121.403,466.78 118.32,469.092C117.892,469.392 117.742,469.756 117.871,470.184C117.913,470.355 117.935,470.612 117.935,470.954C118.406,473.951 117.764,476.82 116.008,479.56C114.253,482.3 111.791,484.076 108.623,484.89C107.639,485.104 106.761,485.211 105.99,485.211C105.177,485.211 104.363,484.975 103.55,484.505C103.336,484.376 103.036,484.194 102.651,483.959C102.266,483.723 101.987,483.541 101.816,483.413C100.403,482.428 99.975,481.165 100.532,479.624C101.174,477.826 102.715,476.049 105.155,474.294C105.883,473.78 107.018,473.009 108.559,471.982C108.987,471.725 109.287,471.511 109.458,471.34C109.972,470.997 110.122,470.505 109.908,469.863C109.608,469.049 109.351,468.503 109.137,468.225C108.923,467.947 108.623,467.808 108.238,467.808C107.895,467.808 107.467,467.872 106.954,468L101.367,469.156C101.153,469.199 100.864,469.253 100.5,469.317C100.136,469.381 99.868,469.413 99.697,469.413C98.455,469.413 97.471,469.156 96.743,468.643C94.902,467.487 93.874,466.802 93.66,466.588C93.532,466.502 93.318,466.395 93.018,466.267C92.547,466.138 92.034,465.796 91.477,465.239C91.177,465.025 91.07,464.768 91.156,464.468C91.242,464.34 91.177,464.212 90.963,464.083C90.45,463.783 90.15,463.334 90.064,462.735C89.979,462.135 90,461.579 90.128,461.065C90.128,460.765 90.257,460.273 90.514,459.588C93.682,451.582 98.926,445.438 106.247,441.157C108.002,440.173 109.372,439.68 110.357,439.68C111.256,439.68 111.963,440.001 112.476,440.644C112.733,440.986 112.99,441.157 113.247,441.157C113.589,441.157 114.05,441.307 114.628,441.607C115.206,441.906 115.537,442.078 115.623,442.121C116.051,442.292 116.458,442.848 116.843,443.79C116.929,444.047 116.886,444.24 116.715,444.368C116.158,444.839 115.816,445.267 115.687,445.653C115.602,445.867 115.366,446.059 114.981,446.231C112.797,447.558 110.732,449.249 108.784,451.304C106.836,453.359 105.263,455.521 104.064,457.79C103.893,458.047 103.743,458.389 103.614,458.817L103.614,459.042C103.614,459.149 103.593,459.245 103.55,459.331ZM109.715,475.386C108.045,476.242 106.675,477.462 105.605,479.046C105.348,479.474 105.155,479.817 105.027,480.073C104.856,480.245 104.856,480.373 105.027,480.459C105.113,480.544 105.198,480.566 105.284,480.523C107.639,479.581 109.137,478.018 109.779,475.835C109.822,475.749 109.801,475.6 109.715,475.386Z" style="fill:rgb(55,151,146);fill-rule:nonzero;"/>
                <path d="M126.669,461.707L125.898,460.551C125.127,459.053 125.02,457.554 125.577,456.056C125.834,455.2 126.294,454.386 126.958,453.616C127.621,452.845 128.338,452.46 129.109,452.46C129.409,452.46 129.73,452.524 130.072,452.652C133.369,453.723 135.402,455.521 136.173,458.047C136.473,459.117 136.601,460.23 136.558,461.386L136.558,462.349C136.558,462.692 136.708,462.82 137.008,462.735C138.677,462.392 140.518,461.728 142.53,460.744C142.959,460.573 143.258,460.487 143.429,460.487C143.729,460.487 144.007,460.615 144.264,460.872C144.35,460.958 144.543,461.054 144.842,461.161C145.142,461.268 145.313,461.343 145.356,461.386C145.699,461.643 145.741,462.007 145.484,462.478C145.399,462.649 145.099,462.884 144.585,463.184C141.76,464.64 139.105,465.453 136.622,465.624C136.194,465.624 135.916,465.86 135.788,466.331C134.803,470.312 133.369,472.71 131.485,473.523C130.971,473.78 130.479,473.909 130.008,473.909C129.494,473.909 128.959,473.759 128.402,473.459C126.176,472.389 125.02,470.484 124.935,467.744C124.935,465.517 125.427,463.655 126.412,462.157C126.454,462.114 126.497,462.039 126.54,461.932C126.583,461.825 126.626,461.75 126.669,461.707ZM133.54,460.166C133.54,459.995 133.518,459.738 133.476,459.395C133.433,459.053 133.411,458.796 133.411,458.625C132.898,456.27 132.02,455.093 130.779,455.093C130.222,455.093 129.772,455.349 129.43,455.863C128.959,456.677 128.659,457.49 128.531,458.304C128.317,460.059 129.023,461.365 130.65,462.221C131.121,462.392 131.785,462.563 132.641,462.735C133.026,462.735 133.262,462.542 133.347,462.157C133.39,461.943 133.433,461.611 133.476,461.161C133.518,460.712 133.54,460.38 133.54,460.166ZM128.338,468.129C128.338,468.771 128.381,469.263 128.467,469.606C128.595,470.419 128.788,470.869 129.045,470.954L129.173,470.954L129.301,471.019C129.601,471.019 129.922,470.826 130.265,470.441C130.607,470.055 130.864,469.692 131.035,469.349C131.421,468.536 131.785,467.744 132.127,466.973C132.47,466.202 132.619,465.624 132.577,465.239C132.234,465.068 131.763,464.854 131.164,464.597C130.993,464.511 130.768,464.394 130.49,464.244C130.211,464.094 130.029,463.998 129.944,463.955C129.772,463.869 129.644,463.826 129.558,463.826C129.387,463.826 129.237,463.998 129.109,464.34C128.681,465.196 128.424,466.459 128.338,468.129Z" style="fill:rgb(55,151,146);fill-rule:nonzero;"/>
                <path d="M161.989,465.496C162.245,465.41 162.417,465.153 162.502,464.725C162.545,464.511 163.316,462.05 164.814,457.34C164.9,457.083 165.06,456.719 165.296,456.249C165.531,455.778 165.692,455.457 165.777,455.285C166.077,454.686 166.527,453.701 167.126,452.331C167.725,450.961 168.196,449.912 168.539,449.185C169.138,447.857 169.845,446.487 170.658,445.075C171.386,443.705 172.338,442.452 173.516,441.318C174.693,440.183 175.924,439.616 177.208,439.616C177.679,439.616 178.3,439.766 179.071,440.066C181.639,441.221 183.33,442.356 184.144,443.469C185.471,445.224 186.263,446.937 186.52,448.607C186.82,450.533 186.52,452.545 185.621,454.643C184.679,456.741 183.223,458.903 181.254,461.129C180.184,462.285 178.578,463.291 176.438,464.147C176.352,464.19 176.213,464.244 176.02,464.308C175.828,464.372 175.688,464.426 175.603,464.468C174.789,464.811 174.04,464.982 173.355,464.982C172.37,464.982 171.407,464.64 170.465,463.955C170.208,463.741 169.78,463.43 169.181,463.024C168.582,462.617 168.132,462.306 167.832,462.092C167.618,461.964 167.447,461.9 167.319,461.9C167.062,461.9 166.869,462.071 166.741,462.413C166.27,463.869 165.927,465.046 165.713,465.945C165.499,466.759 165.167,468.803 164.718,472.078C164.268,475.353 163.936,477.398 163.722,478.211C163.594,478.896 163.401,479.517 163.144,480.073C163.016,480.502 162.823,480.865 162.566,481.165C162.31,481.55 162.031,481.743 161.732,481.743C161.56,481.743 161.368,481.679 161.154,481.55C159.955,480.908 159.27,479.945 159.099,478.661C158.542,473.994 158.521,468.215 159.034,461.322L159.805,450.34C160.148,445.331 160.661,442.206 161.346,440.965C161.603,440.536 161.86,440.322 162.117,440.322C162.245,440.322 162.438,440.387 162.695,440.515C162.738,440.515 162.823,440.558 162.952,440.644C163.08,440.729 163.187,440.772 163.273,440.772C163.744,441.029 164.011,441.243 164.076,441.414C164.14,441.585 164.065,441.928 163.851,442.442C163.765,442.656 163.551,443.726 163.209,445.653C162.952,447.536 162.738,450.447 162.566,454.386C162.524,455.242 162.449,456.527 162.342,458.239C162.235,459.952 162.16,461.236 162.117,462.092C161.989,463.377 161.946,464.511 161.989,465.496ZM169.823,455.093C170.893,454.793 171.771,454.236 172.456,453.423C173.655,452.053 174.554,451.004 175.153,450.276C176.694,448.435 177.508,446.701 177.594,445.075C177.722,444.304 177.615,443.854 177.272,443.726C177.23,443.683 177.144,443.662 177.016,443.662C176.93,443.662 176.609,443.833 176.052,444.176C175.153,444.903 174.34,445.888 173.612,447.13C172.713,448.628 171.536,450.961 170.08,454.129C169.994,454.472 169.909,454.793 169.823,455.093Z" style="fill:rgb(55,151,146);fill-rule:nonzero;"/>
                <path d="M210.566,466.949C209.918,466.949 209.343,466.698 208.842,466.196C208.444,465.757 208.058,465.454 207.681,465.287C207.431,465.141 207.227,464.989 207.07,464.832C206.913,464.676 206.835,464.419 206.835,464.064C206.918,462.496 207.525,461.19 208.654,460.145C209.72,459.162 210.869,458.671 212.103,458.671C212.165,458.671 212.531,458.681 213.2,458.702C213.869,458.723 214.486,459.549 215.05,461.179C215.155,461.576 215.207,461.963 215.207,462.339C215.207,463.176 214.883,464.033 214.235,464.911C213.587,465.789 212.709,466.405 211.601,466.761C211.246,466.886 210.901,466.949 210.566,466.949ZM185.701,471.778C185.554,471.778 185.199,471.741 184.634,471.668C184.07,471.595 183.464,471.203 182.816,470.492C182.377,470.011 182.157,469.426 182.157,468.736C182.157,467.628 182.617,466.771 183.537,466.165C184.06,465.81 184.655,465.632 185.324,465.632L185.544,465.632C187.509,465.883 188.491,466.918 188.491,468.736C188.491,469.51 188.23,470.231 187.707,470.9C187.143,471.485 186.474,471.778 185.701,471.778ZM191.846,481.122C191.784,481.122 191.413,481.101 190.733,481.059C190.054,481.017 189.411,480.234 188.805,478.708C188.408,477.725 188.209,476.607 188.209,475.352C188.209,474.704 188.308,473.68 188.507,472.279C188.706,470.879 189.542,469.28 191.015,467.482C192.489,465.684 194.669,464.461 197.553,463.813C198.682,463.625 199.727,463.531 200.689,463.531C202.884,463.531 204.88,464.127 206.678,465.318C208.476,466.51 209.563,468.297 209.939,470.68C210.002,471.119 210.033,471.558 210.033,471.997C210.033,473.92 209.354,475.823 207.995,477.704C206.804,479.126 205.476,479.836 204.013,479.836C202.278,479.836 200.072,479.105 197.397,477.641C197.062,477.474 196.853,477.391 196.769,477.391C196.644,477.391 196.456,477.589 196.205,477.986C194.554,480.077 193.101,481.122 191.846,481.122ZM200.187,463.374C199.184,463.374 198.452,463.082 197.992,462.496C197.407,461.806 197.114,460.918 197.114,459.831C197.114,459.559 197.167,458.979 197.271,458.091C197.376,457.202 197.825,456.105 198.619,454.798C199.414,453.492 200.365,452.64 201.473,452.243C201.724,452.159 201.975,452.117 202.225,452.117C203.083,452.117 203.961,452.619 204.859,453.622C205.403,454.333 205.675,455.389 205.675,456.789C205.675,458.106 205.382,459.382 204.797,460.615C203.919,462.454 202.382,463.374 200.187,463.374ZM191.031,465.569C190.759,465.569 190.425,465.423 190.028,465.13C187.854,463.479 186.767,461.409 186.767,458.922C186.767,457.855 187.023,456.936 187.535,456.162C188.047,455.389 188.742,455.002 189.62,455.002C190.059,455.002 190.55,455.096 191.094,455.284C193.205,456.246 194.261,458.106 194.261,460.866C194.261,462.601 193.602,463.845 192.285,464.597C192.076,464.743 191.951,464.858 191.909,464.942C191.7,465.36 191.407,465.569 191.031,465.569Z" style="fill:rgb(55,151,146);fill-rule:nonzero;"/>
                <path d="M223.845,466.716C224.059,466.588 224.401,466.245 224.872,465.689C225.172,465.26 225.622,464.661 226.221,463.89C226.82,463.12 227.27,462.52 227.57,462.092C228.64,460.808 229.282,460.059 229.496,459.845C230.138,459.203 230.652,458.881 231.037,458.881C231.209,458.881 231.401,458.946 231.615,459.074C231.915,459.203 232.364,459.438 232.964,459.781C233.435,459.952 233.713,460.358 233.799,461.001C233.799,461.557 233.713,462.478 233.542,463.762C233.499,464.276 233.413,465.036 233.285,466.042C233.157,467.048 233.049,467.808 232.964,468.322C232.835,469.349 232.857,470.89 233.028,472.945C233.199,473.245 233.306,473.395 233.349,473.395C233.52,473.395 233.649,473.266 233.734,473.009C234.805,471.04 235.789,468.279 236.689,464.725C237.202,462.67 239.45,461.536 243.431,461.322C244.973,461.322 246.107,461.236 246.835,461.065C246.921,461.022 247.028,461.001 247.156,461.001C247.199,461.001 247.67,461.193 248.569,461.579C249.297,461.921 249.318,462.392 248.633,462.991C248.59,463.034 248.355,463.12 247.927,463.248C247.456,463.377 246.792,463.441 245.936,463.441C243.795,463.441 242.04,463.612 240.67,463.955C239.814,464.169 239.257,464.704 239,465.56C238.958,465.774 238.861,466.149 238.711,466.684C238.562,467.219 238.444,467.637 238.358,467.936C237.545,470.633 237.01,472.282 236.753,472.881C236.453,473.737 236.014,474.615 235.436,475.514C234.858,476.413 234.27,476.863 233.67,476.863C232.9,476.863 232.193,476.488 231.551,475.739C230.909,474.99 230.502,474.208 230.331,473.395C230.074,472.068 229.946,470.377 229.946,468.322C229.946,468.193 229.881,468.129 229.753,468.129C229.667,468.129 229.582,468.172 229.496,468.257C229.453,468.3 229.357,468.45 229.207,468.707C229.057,468.964 228.94,469.178 228.854,469.349C226.242,474.016 223.845,476.349 221.661,476.349C221.233,476.349 220.827,476.22 220.441,475.963C219.756,475.621 219.264,475.343 218.964,475.129C218.451,474.743 217.937,474.422 217.423,474.165C215.925,473.395 215.111,472.153 214.983,470.441C214.683,465.303 216.224,460.637 219.606,456.441C219.992,455.97 220.377,455.628 220.762,455.414C221.105,455.157 221.447,455.028 221.79,455.028C222.132,455.028 222.475,455.2 222.817,455.542C223.117,455.842 223.609,456.12 224.294,456.377C225.579,456.848 226.349,457.383 226.606,457.982C226.735,458.325 226.713,458.667 226.542,459.01C226.371,459.267 226.135,459.695 225.836,460.294C225.536,460.894 225.322,461.322 225.193,461.579C224.423,462.991 223.909,464.511 223.652,466.138C223.652,466.438 223.716,466.63 223.845,466.716Z" style="fill:rgb(55,151,146);fill-rule:nonzero;"/>
                <path d="M246.257,465.881C246.3,465.153 246.385,464.019 246.514,462.478C246.642,460.936 246.728,459.802 246.771,459.074C247.755,451.539 249.361,445.224 251.587,440.13C252.272,438.931 253.043,438.332 253.899,438.332C254.413,438.332 254.862,438.567 255.248,439.038C255.676,439.595 256.275,439.937 257.046,440.066C257.602,440.108 258.458,440.558 259.614,441.414C260.513,442.056 260.792,442.934 260.449,444.047C257.966,453.808 256.382,461.557 255.697,467.294C255.226,470.89 255.098,473.887 255.312,476.285C255.483,477.911 255.676,479.132 255.89,479.945C255.933,480.031 255.986,480.17 256.05,480.362C256.114,480.555 256.168,480.694 256.211,480.78C256.425,481.593 256.853,482 257.495,482C257.88,482 258.287,481.872 258.715,481.615C258.801,481.572 258.908,481.497 259.036,481.39C259.165,481.283 259.272,481.208 259.358,481.165C259.657,480.951 259.935,480.844 260.192,480.844C260.449,480.844 260.685,480.951 260.899,481.165C261.37,481.55 261.862,481.807 262.376,481.936C262.761,482.021 263.189,482.278 263.66,482.706C264.345,483.177 264.474,483.798 264.045,484.569C262.804,486.238 261.198,487.073 259.229,487.073C258.972,487.073 258.587,487.03 258.073,486.945C255.933,486.388 253.878,485.307 251.908,483.702C249.939,482.096 248.633,480.309 247.991,478.34C247.263,476.285 246.771,473.973 246.514,471.404C246.3,469.221 246.214,467.38 246.257,465.881Z" style="fill:rgb(55,151,146);fill-rule:nonzero;"/>
                <path d="M260.449,467.872C260.449,465.475 261.348,462.97 263.146,460.358C263.575,459.845 263.938,459.481 264.238,459.267C264.538,459.053 264.837,458.946 265.137,458.946C265.308,458.946 265.737,459.128 266.422,459.492C267.107,459.855 267.535,460.102 267.706,460.23C268.048,460.444 268.241,460.594 268.284,460.68C268.584,461.065 268.626,461.386 268.412,461.643C267.171,463.227 266.379,465.239 266.036,467.679C266.036,467.765 266.025,467.893 266.004,468.065C265.983,468.236 265.972,468.364 265.972,468.45C265.972,468.536 265.951,468.728 265.908,469.028C265.865,469.328 265.854,469.574 265.876,469.766C265.897,469.959 265.993,470.098 266.165,470.184C266.25,470.227 266.357,470.248 266.486,470.248C267.085,470.248 268.241,469.263 269.954,467.294C270.467,466.737 271.195,465.86 272.137,464.661C273.079,463.462 273.807,462.585 274.32,462.028C274.663,461.6 274.92,461.3 275.091,461.129C275.305,460.915 275.498,460.808 275.669,460.808C275.755,460.808 275.883,460.851 276.054,460.936C276.14,460.979 276.279,461.054 276.472,461.161C276.664,461.268 276.836,461.365 276.985,461.45C277.135,461.536 277.274,461.621 277.403,461.707C277.959,461.964 278.088,462.371 277.788,462.927C277.702,463.098 277.66,463.205 277.66,463.248C275.348,466.845 273.764,469.199 272.908,470.312C270.51,473.438 268.327,475 266.357,475C265.972,475 265.629,474.915 265.33,474.743C264.388,474.187 263.382,473.566 262.312,472.881C261.284,472.196 260.663,470.526 260.449,467.872ZM272.715,451.24C272.715,451.411 272.693,451.518 272.651,451.561C272.394,452.203 272.008,452.856 271.495,453.519C270.981,454.183 270.446,454.515 269.889,454.515C269.376,454.515 268.584,454.108 267.513,453.294C266.914,452.824 266.721,452.224 266.935,451.496C267.107,450.897 267.449,450.34 267.963,449.827C268.048,449.784 268.22,449.602 268.476,449.281C268.733,448.96 268.969,448.756 269.183,448.671C269.226,448.671 269.269,448.66 269.311,448.639C269.354,448.617 269.397,448.607 269.44,448.607C269.611,448.607 269.836,448.714 270.114,448.928C270.392,449.142 270.574,449.27 270.66,449.313C272.03,449.698 272.715,450.34 272.715,451.24Z" style="fill:rgb(55,151,146);fill-rule:nonzero;"/>
                <path d="M272.651,467.872C272.651,467.273 272.715,466.652 272.843,466.01C273.871,462.927 275.412,460.401 277.467,458.432C279.522,456.463 282.048,455.478 285.045,455.478C286.072,455.478 286.993,455.735 287.806,456.249C288.363,456.548 288.919,456.826 289.476,457.083C289.904,457.297 290.182,457.576 290.311,457.918C290.439,458.132 290.46,458.282 290.375,458.368C290.332,458.411 290.257,458.539 290.15,458.753C290.043,458.967 289.957,459.106 289.893,459.17C289.829,459.235 289.733,459.32 289.604,459.427C289.476,459.534 289.326,459.609 289.155,459.652C288.641,459.823 288.256,459.93 287.999,459.973C285.73,460.487 283.825,461.75 282.283,463.762C280.742,465.774 279.972,467.958 279.972,470.312C279.972,470.74 280.164,470.912 280.549,470.826C282.904,470.826 286.051,469.756 289.99,467.615C291.574,466.716 293.971,465.111 297.182,462.799C297.482,462.585 297.888,462.296 298.402,461.932C298.916,461.568 299.258,461.322 299.43,461.193C299.601,461.065 299.794,461.001 300.008,461.001L302.191,462.092C302.662,462.349 302.726,462.692 302.384,463.12C302.041,463.719 300.768,464.875 298.563,466.588C296.358,468.3 294.57,469.649 293.2,470.633C291.659,471.747 289.743,472.87 287.453,474.005C285.162,475.139 283.268,475.771 281.77,475.899C280.442,475.899 279.458,475.707 278.816,475.321C278.045,474.893 276.889,474.208 275.348,473.266C273.421,471.982 272.522,470.184 272.651,467.872Z" style="fill:rgb(55,151,146);fill-rule:nonzero;"/>
                <path d="M296.989,467.872C296.989,465.475 297.888,462.97 299.687,460.358C300.115,459.845 300.479,459.481 300.778,459.267C301.078,459.053 301.378,458.946 301.677,458.946C301.849,458.946 302.277,459.128 302.962,459.492C303.647,459.855 304.075,460.102 304.246,460.23C304.588,460.444 304.781,460.594 304.824,460.68C305.124,461.065 305.166,461.386 304.952,461.643C303.711,463.227 302.919,465.239 302.576,467.679C302.576,467.765 302.566,467.893 302.544,468.065C302.523,468.236 302.512,468.364 302.512,468.45C302.512,468.536 302.491,468.728 302.448,469.028C302.405,469.328 302.394,469.574 302.416,469.766C302.437,469.959 302.534,470.098 302.705,470.184C302.79,470.227 302.897,470.248 303.026,470.248C303.625,470.248 304.781,469.263 306.494,467.294C307.007,466.737 307.735,465.86 308.677,464.661C309.619,463.462 310.347,462.585 310.86,462.028C311.203,461.6 311.46,461.3 311.631,461.129C311.845,460.915 312.038,460.808 312.209,460.808C312.295,460.808 312.423,460.851 312.594,460.936C312.68,460.979 312.819,461.054 313.012,461.161C313.204,461.268 313.376,461.365 313.526,461.45C313.675,461.536 313.814,461.621 313.943,461.707C314.499,461.964 314.628,462.371 314.328,462.927C314.243,463.098 314.2,463.205 314.2,463.248C311.888,466.845 310.304,469.199 309.448,470.312C307.05,473.438 304.867,475 302.897,475C302.512,475 302.17,474.915 301.87,474.743C300.928,474.187 299.922,473.566 298.852,472.881C297.824,472.196 297.203,470.526 296.989,467.872ZM309.255,451.24C309.255,451.411 309.234,451.518 309.191,451.561C308.934,452.203 308.549,452.856 308.035,453.519C307.521,454.183 306.986,454.515 306.429,454.515C305.916,454.515 305.124,454.108 304.053,453.294C303.454,452.824 303.261,452.224 303.475,451.496C303.647,450.897 303.989,450.34 304.503,449.827C304.588,449.784 304.76,449.602 305.017,449.281C305.273,448.96 305.509,448.756 305.723,448.671C305.766,448.671 305.809,448.66 305.851,448.639C305.894,448.617 305.937,448.607 305.98,448.607C306.151,448.607 306.376,448.714 306.654,448.928C306.932,449.142 307.114,449.27 307.2,449.313C308.57,449.698 309.255,450.34 309.255,451.24Z" style="fill:rgb(55,151,146);fill-rule:nonzero;"/>
                <path d="M312.402,461.707L311.631,460.551C310.86,459.053 310.753,457.554 311.31,456.056C311.567,455.2 312.027,454.386 312.691,453.616C313.354,452.845 314.071,452.46 314.842,452.46C315.142,452.46 315.463,452.524 315.805,452.652C319.102,453.723 321.135,455.521 321.906,458.047C322.206,459.117 322.334,460.23 322.291,461.386L322.291,462.349C322.291,462.692 322.441,462.82 322.741,462.735C324.41,462.392 326.251,461.728 328.264,460.744C328.692,460.573 328.991,460.487 329.163,460.487C329.462,460.487 329.741,460.615 329.997,460.872C330.083,460.958 330.276,461.054 330.575,461.161C330.875,461.268 331.046,461.343 331.089,461.386C331.432,461.643 331.474,462.007 331.218,462.478C331.132,462.649 330.832,462.884 330.319,463.184C327.493,464.64 324.839,465.453 322.356,465.624C321.927,465.624 321.649,465.86 321.521,466.331C320.536,470.312 319.102,472.71 317.218,473.523C316.704,473.78 316.212,473.909 315.741,473.909C315.227,473.909 314.692,473.759 314.136,473.459C311.909,472.389 310.753,470.484 310.668,467.744C310.668,465.517 311.16,463.655 312.145,462.157C312.188,462.114 312.23,462.039 312.273,461.932C312.316,461.825 312.359,461.75 312.402,461.707ZM319.273,460.166C319.273,459.995 319.252,459.738 319.209,459.395C319.166,459.053 319.145,458.796 319.145,458.625C318.631,456.27 317.753,455.093 316.512,455.093C315.955,455.093 315.506,455.349 315.163,455.863C314.692,456.677 314.392,457.49 314.264,458.304C314.05,460.059 314.756,461.365 316.383,462.221C316.854,462.392 317.518,462.563 318.374,462.735C318.759,462.735 318.995,462.542 319.08,462.157C319.123,461.943 319.166,461.611 319.209,461.161C319.252,460.712 319.273,460.38 319.273,460.166ZM314.071,468.129C314.071,468.771 314.114,469.263 314.2,469.606C314.328,470.419 314.521,470.869 314.778,470.954L314.906,470.954L315.035,471.019C315.334,471.019 315.655,470.826 315.998,470.441C316.34,470.055 316.597,469.692 316.769,469.349C317.154,468.536 317.518,467.744 317.86,466.973C318.203,466.202 318.353,465.624 318.31,465.239C317.967,465.068 317.496,464.854 316.897,464.597C316.726,464.511 316.501,464.394 316.223,464.244C315.944,464.094 315.762,463.998 315.677,463.955C315.506,463.869 315.377,463.826 315.292,463.826C315.12,463.826 314.97,463.998 314.842,464.34C314.414,465.196 314.157,466.459 314.071,468.129Z" style="fill:rgb(55,151,146);fill-rule:nonzero;"/>
                <path d="M337.19,465.56L334.685,469.413C333.958,470.655 333.187,471.49 332.374,471.918C332.159,472.089 331.903,472.175 331.603,472.175C331.175,472.175 330.34,471.725 329.098,470.826C328.242,470.184 327.75,469.328 327.621,468.257C327.45,467.358 327.493,466.074 327.75,464.404C328.092,462.007 328.82,459.545 329.933,457.019C330.276,455.82 330.789,455.221 331.474,455.221C331.517,455.221 331.667,455.264 331.924,455.349C332.438,455.606 332.844,455.799 333.144,455.927C333.744,456.313 333.915,456.826 333.658,457.469C332.074,460.979 331.153,464.233 330.897,467.23C330.854,467.53 330.832,467.979 330.832,468.578C330.832,468.792 330.918,468.921 331.089,468.964C331.26,468.964 331.539,468.685 331.924,468.129C332.609,467.23 333.23,466.352 333.786,465.496C334.214,464.811 334.803,463.858 335.552,462.638C336.302,461.418 336.762,460.658 336.933,460.358C338.303,458.047 339.416,456.356 340.272,455.285C340.7,454.686 341.289,454.076 342.038,453.455C342.788,452.834 343.419,452.524 343.933,452.524C344.232,452.524 344.532,452.61 344.832,452.781C344.917,452.824 345.196,452.973 345.667,453.23C347.979,454.258 349.177,456.077 349.263,458.689C349.306,459.845 349.263,461.129 349.134,462.542C349.006,464.683 348.963,466.63 349.006,468.386C349.006,468.728 349.027,468.985 349.07,469.156C349.113,469.328 349.199,469.413 349.327,469.413C349.413,469.413 349.477,469.392 349.52,469.349C349.948,469.178 350.601,468.685 351.478,467.872C352.356,467.059 353.009,466.395 353.437,465.881C354.379,464.64 355.556,463.12 356.969,461.322C357.269,460.979 357.504,460.808 357.675,460.808C357.804,460.808 358.039,460.872 358.382,461.001C358.896,461.215 359.217,461.429 359.345,461.643C359.474,461.857 359.516,462.039 359.474,462.189C359.431,462.339 359.281,462.628 359.024,463.056C357.568,465.539 356.455,467.401 355.685,468.643C354.743,470.141 353.555,471.65 352.121,473.17C350.686,474.69 349.327,475.642 348.043,476.028C347.743,476.156 347.422,476.22 347.079,476.22C346.437,476.22 345.581,475.835 344.511,475.064C342.584,473.951 341.471,473.288 341.171,473.074C340.315,472.603 339.63,472.003 339.116,471.276C338.431,470.419 338.11,469.627 338.153,468.9C338.153,468.728 338.068,468.557 337.896,468.386C337.725,468.215 337.639,468.065 337.639,467.936C337.811,466.566 337.896,465.731 337.896,465.432L337.896,464.854C337.768,464.854 337.532,465.089 337.19,465.56ZM337.961,464.661L337.961,464.79L338.025,464.725C338.025,464.683 338.003,464.661 337.961,464.661Z" style="fill:rgb(55,151,146);fill-rule:nonzero;"/>
                <path d="M364.097,467.166C363.84,467.166 363.669,467.187 363.584,467.23C363.412,467.273 363.155,467.294 362.813,467.294C361.999,467.294 361.143,467.016 360.244,466.459C360.073,466.331 359.784,466.149 359.377,465.913C358.971,465.678 358.682,465.496 358.51,465.368C356.413,464.083 355.685,462.242 356.327,459.845C356.926,457.704 358.082,455.703 359.795,453.84C361.507,451.978 363.434,450.383 365.574,449.056C365.66,449.013 365.853,448.917 366.152,448.767C366.452,448.617 366.687,448.521 366.859,448.478C367.201,448.393 367.458,448.35 367.629,448.35C368.143,448.35 368.593,448.542 368.978,448.928C369.406,449.356 369.748,449.57 370.005,449.57C370.262,449.57 370.508,449.623 370.744,449.73C370.979,449.837 371.225,449.987 371.482,450.18C371.739,450.373 371.932,450.49 372.06,450.533C372.317,450.619 372.574,450.876 372.831,451.304C373.088,451.775 373.045,452.267 372.703,452.781C372.232,453.466 371.397,454.365 370.198,455.478C369.684,455.992 368.25,457.533 365.895,460.102C365.339,460.701 364.718,461.643 364.033,462.927C363.862,463.184 363.765,463.387 363.744,463.537C363.723,463.687 363.776,463.794 363.905,463.858C364.033,463.923 364.247,463.998 364.547,464.083C364.975,464.212 365.617,464.447 366.473,464.79C368.186,465.646 369.363,466.438 370.005,467.166C370.177,467.337 370.348,467.422 370.519,467.422C370.69,467.422 370.84,467.358 370.969,467.23C372.638,466.074 375.228,464.468 378.739,462.413C378.867,462.328 379.082,462.21 379.381,462.06C379.681,461.91 379.916,461.793 380.088,461.707C380.516,461.407 380.922,461.258 381.308,461.258C381.821,461.258 382.442,461.536 383.17,462.092C383.513,462.349 383.491,462.606 383.106,462.863C383.063,462.863 382.999,462.906 382.913,462.991C382.828,463.077 382.763,463.12 382.721,463.12C380.88,463.505 377.455,465.453 372.446,468.964C371.803,469.349 371.547,469.884 371.675,470.569C372.274,473.352 371.846,476.049 370.391,478.661C369.791,479.731 368.914,480.662 367.758,481.454C366.602,482.246 365.446,482.642 364.29,482.642C363.262,482.642 362.256,482.107 361.272,481.037C360.844,480.566 360.737,479.924 360.951,479.11C361.55,476.541 363.22,473.93 365.96,471.276C366.088,471.147 366.291,470.954 366.57,470.698C366.848,470.441 367.051,470.248 367.18,470.12C367.223,470.077 367.308,470.002 367.437,469.895C367.565,469.788 367.661,469.713 367.726,469.67C367.79,469.627 367.854,469.542 367.918,469.413C367.982,469.285 367.972,469.178 367.886,469.092C367.629,468.279 367.223,467.786 366.666,467.615C366.409,467.53 365.553,467.38 364.097,467.166ZM368.785,472.624C368.785,472.453 368.721,472.324 368.593,472.239C368.55,472.196 368.486,472.175 368.4,472.175C368.314,472.175 368.207,472.239 368.079,472.367C366.152,474.165 364.782,476.006 363.969,477.89C363.84,478.104 363.626,478.746 363.327,479.817C363.198,480.245 363.327,480.459 363.712,480.459L363.776,480.459L363.905,480.395C367.158,479.41 368.785,476.82 368.785,472.624Z" style="fill:rgb(55,151,146);fill-rule:nonzero;"/>
            </g>
        </g>
    </g>
</svg>
